<svg width="27" height="26" viewBox="0 0 27 26" fill="none" xmlns="http://www.w3.org/2000/svg">
<g id="Search" clip-path="url(#clip0_113_41)">
<path id="Vector" d="M17.2917 15.1667H16.4358L16.1325 14.8742C17.1942 13.6392 17.8333 12.0358 17.8333 10.2917C17.8333 6.4025 14.6808 3.25 10.7917 3.25C6.9025 3.25 3.75 6.4025 3.75 10.2917C3.75 14.1808 6.9025 17.3333 10.7917 17.3333C12.5358 17.3333 14.1392 16.6942 15.3742 15.6325L15.6667 15.9358V16.7917L21.0833 22.1975L22.6975 20.5833L17.2917 15.1667ZM10.7917 15.1667C8.09417 15.1667 5.91667 12.9892 5.91667 10.2917C5.91667 7.59417 8.09417 5.41667 10.7917 5.41667C13.4892 5.41667 15.6667 7.59417 15.6667 10.2917C15.6667 12.9892 13.4892 15.1667 10.7917 15.1667Z" fill="#B7B7B7"/>
</g>
<defs>
<clipPath id="clip0_113_41">
<rect width="26" height="26" fill="white" transform="translate(0.5)"/>
</clipPath>
</defs>
</svg>
